<?xml version="1.0" encoding="iso-8859-1"?>
<!-- Generator: Adobe Illustrator 19.0.0, SVG Export Plug-In . SVG Version: 6.00 Build 0)  -->
<svg version="1.1" id="Capa_1" xmlns="http://www.w3.org/2000/svg" xmlns:xlink="http://www.w3.org/1999/xlink" x="0px" y="0px"
	 viewBox="0 0 512 512" style="enable-background:new 0 0 512 512;" xml:space="preserve">
<path style="fill:#F3E8D6;" d="M159.6,128.06c0,53.175-31.012,96.282-69.267,96.282s-69.267-43.107-69.267-96.282
	S52.078,19.942,90.333,19.942S159.6,74.885,159.6,128.06z"/>
<path style="fill:#D8CAB8;" d="M90.333,19.942c-9.582,0-18.71,3.448-27.01,9.451c24.835,17.963,42.257,58.811,42.257,98.667
	c0,39.855-17.422,74.054-42.257,88.686c8.3,4.89,17.427,7.595,27.01,7.595c38.255,0,69.267-43.107,69.267-96.282
	C159.6,74.885,128.589,19.942,90.333,19.942z"/>
<path style="fill:#F3E8D6;" d="M325.267,128.06c0,53.175-31.012,96.282-69.267,96.282s-69.267-43.107-69.267-96.282
	S217.745,19.942,256,19.942S325.267,74.885,325.267,128.06z"/>
<path style="fill:#D8CAB8;" d="M256,19.942c-9.611,0-18.764,3.47-27.083,9.506c24.796,17.991,42.184,58.796,42.184,98.612
	s-17.388,73.985-42.184,88.642c8.32,4.918,17.473,7.64,27.083,7.64c38.255,0,69.267-43.107,69.267-96.282S294.255,19.942,256,19.942
	z"/>
<path style="fill:#F3E8D6;" d="M490.934,128.06c0,53.175-31.012,96.282-69.267,96.282S352.4,181.236,352.4,128.06
	s31.012-108.118,69.267-108.118S490.934,74.885,490.934,128.06z"/>
<path style="fill:#D8CAB8;" d="M421.667,19.942c-9.611,0-18.764,3.47-27.083,9.506c24.796,17.991,42.184,58.796,42.184,98.612
	s-17.388,73.985-42.184,88.642c8.32,4.918,17.472,7.64,27.083,7.64c38.255,0,69.267-43.107,69.267-96.282
	S459.922,19.942,421.667,19.942z"/>
<path style="fill:#FD9727;" d="M501.653,161.383H10.347c-1.572,0-2.847,1.275-2.847,2.847v19.738c0,1.572,1.275,2.847,2.847,2.847
	H26.15c1.152,0,2.19,0.694,2.631,1.759l15.062,36.413c1.932,4.67,6.487,7.715,11.54,7.715h69.902c5.054,0,9.609-3.046,11.541-7.715
	l15.061-36.413c0.44-1.064,1.479-1.759,2.631-1.759h37.3c1.152,0,2.19,0.694,2.631,1.759l15.062,36.413
	c1.932,4.67,6.487,7.715,11.54,7.715h69.902c5.053,0,9.609-3.045,11.54-7.715l15.061-36.413c0.44-1.064,1.479-1.759,2.631-1.759
	h37.3c1.152,0,2.19,0.694,2.631,1.759l15.062,36.413c1.932,4.67,6.487,7.715,11.54,7.715h69.902c5.053,0,9.609-3.045,11.54-7.715
	l15.062-36.413c0.44-1.064,1.479-1.759,2.631-1.759h15.803c1.572,0,2.847-1.275,2.847-2.847V164.23
	C504.5,162.658,503.225,161.383,501.653,161.383z"/>
<path style="fill:#F9662B;" d="M501.653,161.383h-51.32l-35.5,71.319h41.784c5.053,0,9.609-3.045,11.54-7.715l15.062-36.413
	c0.44-1.064,1.479-1.759,2.63-1.759h15.803c1.572,0,2.847-1.275,2.847-2.847V164.23C504.5,162.658,503.225,161.383,501.653,161.383z
	"/>
<path style="fill:#F3E8D6;" d="M159.6,387.416c0,53.175-31.012,96.282-69.267,96.282s-69.267-43.107-69.267-96.282
	s31.012-108.118,69.267-108.118S159.6,334.241,159.6,387.416z"/>
<path style="fill:#D8CAB8;" d="M90.333,279.298c-9.611,0-18.764,3.47-27.083,9.506c24.796,17.991,42.184,58.796,42.184,98.612
	s-17.388,73.985-42.184,88.642c8.32,4.917,17.473,7.64,27.083,7.64c38.255,0,69.267-43.107,69.267-96.282
	S128.589,279.298,90.333,279.298z"/>
<path style="fill:#F3E8D6;" d="M325.267,387.416c0,53.175-31.012,96.282-69.267,96.282s-69.267-43.107-69.267-96.282
	S217.745,279.298,256,279.298S325.267,334.241,325.267,387.416z"/>
<path style="fill:#D8CAB8;" d="M256,279.298c-9.611,0-18.764,3.47-27.083,9.506c24.796,17.991,42.184,58.796,42.184,98.612
	s-17.388,73.985-42.184,88.642c8.32,4.917,17.473,7.64,27.083,7.64c38.255,0,69.267-43.107,69.267-96.282
	S294.255,279.298,256,279.298z"/>
<path style="fill:#F3E8D6;" d="M490.934,387.416c0,53.175-31.012,96.282-69.267,96.282S352.4,440.591,352.4,387.416
	s31.012-108.118,69.267-108.118S490.934,334.241,490.934,387.416z"/>
<path style="fill:#D8CAB8;" d="M421.667,279.298c-9.611,0-18.764,3.47-27.083,9.506c24.796,17.991,42.184,58.796,42.184,98.612
	s-17.388,73.985-42.184,88.642c8.32,4.917,17.472,7.64,27.083,7.64c38.255,0,69.267-43.107,69.267-96.282
	S459.922,279.298,421.667,279.298z"/>
<path style="fill:#FD9727;" d="M501.653,420.739H10.347c-1.572,0-2.847,1.275-2.847,2.847v19.738c0,1.572,1.275,2.847,2.847,2.847
	H26.15c1.152,0,2.19,0.694,2.631,1.759l15.061,36.413c1.932,4.67,6.487,7.715,11.54,7.715h69.902c5.054,0,9.609-3.046,11.541-7.715
	l15.061-36.413c0.44-1.064,1.479-1.759,2.631-1.759h37.3c1.152,0,2.19,0.694,2.631,1.759l15.062,36.413
	c1.932,4.67,6.487,7.715,11.54,7.715h69.902c5.053,0,9.609-3.045,11.54-7.715l15.061-36.413c0.44-1.064,1.479-1.759,2.631-1.759
	h37.3c1.152,0,2.19,0.694,2.631,1.759l15.061,36.413c1.932,4.67,6.487,7.715,11.54,7.715h69.902c5.053,0,9.609-3.045,11.54-7.715
	l15.062-36.414c0.44-1.064,1.479-1.759,2.631-1.759h15.803c1.572,0,2.847-1.275,2.847-2.847v-19.738
	C504.5,422.013,503.225,420.739,501.653,420.739z"/>
<path style="fill:#F9662B;" d="M501.653,420.739h-51.32l-35.5,71.319h41.784c5.053,0,9.609-3.045,11.54-7.715l15.062-36.413
	c0.44-1.064,1.479-1.759,2.63-1.759h15.803c1.572,0,2.847-1.275,2.847-2.847v-19.738C504.5,422.013,503.225,420.739,501.653,420.739
	z"/>
<path d="M501.653,153.884h-5.612c1.582-8.397,2.392-17.044,2.392-25.823c0-27.411-7.8-55.814-21.399-77.929
	c-14.946-24.305-34.609-37.689-55.367-37.689s-40.421,13.385-55.368,37.689c-13.6,22.114-21.399,50.518-21.399,77.929
	c0,8.779,0.81,17.427,2.392,25.823h-16.917c1.582-8.396,2.392-17.043,2.392-25.823c0-27.411-7.8-55.814-21.399-77.929
	c-14.947-24.305-34.61-37.69-55.368-37.69s-40.421,13.385-55.368,37.689c-13.6,22.114-21.399,50.518-21.399,77.929
	c0,8.78,0.81,17.427,2.392,25.823h-16.917c1.582-8.397,2.392-17.044,2.392-25.823c0-27.411-7.8-55.814-21.399-77.929
	c-14.946-24.305-34.61-37.689-55.368-37.689c-26.205,0-51.414,22.461-65.788,58.618c-1.53,3.849,0.35,8.21,4.199,9.74
	c3.847,1.529,8.21-0.349,9.74-4.199c12.055-30.322,31.922-49.159,51.849-49.159c31.75,0,61.768,48.898,61.768,100.618
	c0,8.82-0.899,17.481-2.679,25.822H31.245c-1.779-8.341-2.679-17.002-2.679-25.822c0-6.373,0.475-12.9,1.41-19.401
	c0.59-4.1-2.256-7.902-6.355-8.492c-4.087-0.583-7.901,2.255-8.492,6.355c-1.037,7.206-1.563,14.452-1.563,21.538
	c0,8.779,0.81,17.427,2.392,25.823h-5.612C4.642,153.884,0,158.525,0,164.23v19.737c0,5.705,4.642,10.347,10.347,10.347h12.692
	l13.872,33.54c3.104,7.501,10.354,12.348,18.472,12.348h69.901c8.119,0,15.369-4.848,18.471-12.35l13.872-33.538h31.079
	l13.872,33.54c3.104,7.501,10.354,12.348,18.471,12.348h69.902c8.117,0,15.367-4.847,18.471-12.349l13.872-33.539h31.079
	l13.872,33.54c3.104,7.501,10.354,12.348,18.471,12.348h69.901c8.117,0,15.368-4.847,18.472-12.349l13.872-33.539h12.692
	c5.705,0,10.347-4.642,10.347-10.347V164.23C512,158.525,507.358,153.884,501.653,153.884z M421.667,27.442
	c31.749,0,61.767,48.898,61.767,100.618c0,8.82-0.899,17.481-2.679,25.822H362.578c-1.779-8.341-2.679-17.002-2.679-25.822
	C359.899,76.341,389.917,27.442,421.667,27.442z M256,27.442c31.75,0,61.768,48.898,61.768,100.618
	c0,8.821-0.899,17.482-2.679,25.822H196.911c-1.779-8.34-2.679-17.001-2.679-25.822C194.232,76.341,224.25,27.442,256,27.442z
	 M497,179.314h-11.15c-4.205,0-7.958,2.511-9.561,6.393l-15.062,36.413c-0.774,1.872-2.584,3.082-4.61,3.082h-69.901
	c-2.025,0-3.835-1.21-4.609-3.081l-15.062-36.415c-1.606-3.883-5.359-6.392-9.562-6.392h-37.3c-4.202,0-7.955,2.509-9.562,6.393
	l-15.062,36.413c-0.774,1.872-2.584,3.082-4.609,3.082h-69.902c-2.025,0-3.835-1.21-4.609-3.081l-15.062-36.415
	c-1.606-3.883-5.359-6.392-9.562-6.392h-37.3c-4.202,0-7.955,2.509-9.562,6.393l-15.062,36.414
	c-0.774,1.871-2.583,3.081-4.609,3.081H55.383c-2.026,0-3.836-1.21-4.61-3.081l-15.06-36.41c-1.604-3.886-5.357-6.396-9.563-6.396
	H15v-10.431h482V179.314z"/>
<path d="M501.653,413.239h-5.612c1.582-8.396,2.392-17.044,2.392-25.823c0-27.411-7.8-55.814-21.399-77.929
	c-14.946-24.305-34.609-37.689-55.367-37.689c-23.285,0-45.301,17.015-60.401,46.681c-1.879,3.691-0.41,8.207,3.281,10.086
	c3.69,1.878,8.207,0.41,10.086-3.281c12.267-24.099,29.85-38.485,47.034-38.485c31.749,0,61.767,48.898,61.767,100.618
	c0,8.821-0.899,17.482-2.679,25.823H362.578c-1.779-8.341-2.679-17.002-2.679-25.823c0-10.165,1.187-20.531,3.526-30.809
	c0.92-4.039-1.608-8.059-5.647-8.978c-4.036-0.919-8.058,1.608-8.978,5.647c-2.589,11.368-3.901,22.854-3.901,34.139
	c0,8.78,0.81,17.427,2.392,25.823h-16.916c1.582-8.396,2.392-17.043,2.392-25.823c0-27.41-7.8-55.814-21.399-77.929
	c-14.947-24.305-34.61-37.689-55.368-37.689s-40.421,13.385-55.368,37.689c-13.6,22.114-21.399,50.519-21.399,77.929
	c0,8.78,0.81,17.427,2.392,25.823h-16.916c1.582-8.396,2.392-17.044,2.392-25.823c0-27.411-7.8-55.814-21.399-77.929
	c-14.946-24.305-34.61-37.689-55.368-37.689s-40.421,13.385-55.367,37.689c-13.6,22.114-21.399,50.518-21.399,77.929
	c0,8.78,0.81,17.427,2.392,25.823h-5.612C4.642,413.239,0,417.881,0,423.586v19.737c0,5.705,4.642,10.347,10.347,10.347h12.692
	l13.872,33.54c3.104,7.501,10.354,12.348,18.472,12.348h69.901c8.119,0,15.369-4.848,18.471-12.35l13.872-33.538h31.079
	l13.872,33.54c3.104,7.501,10.354,12.348,18.471,12.348h69.902c8.117,0,15.367-4.847,18.471-12.349l13.872-33.539h31.079
	l13.872,33.54c3.104,7.501,10.354,12.348,18.471,12.348h69.901c8.117,0,15.368-4.847,18.472-12.349l13.872-33.539h12.692
	c5.705,0,10.347-4.642,10.347-10.347v-19.737C512,417.881,507.358,413.239,501.653,413.239z M256,286.798
	c31.75,0,61.768,48.898,61.768,100.618c0,8.822-0.899,17.483-2.679,25.823H196.911c-1.779-8.34-2.679-17.001-2.679-25.823
	C194.232,335.696,224.25,286.798,256,286.798z M90.333,286.798c31.75,0,61.768,48.898,61.768,100.618
	c0,8.821-0.899,17.482-2.679,25.823H31.245c-1.779-8.341-2.679-17.002-2.679-25.823C28.566,335.696,58.584,286.798,90.333,286.798z
	 M497,438.67h-11.15c-4.205,0-7.958,2.511-9.561,6.393l-15.062,36.413c-0.774,1.872-2.584,3.082-4.61,3.082h-69.901
	c-2.025,0-3.835-1.21-4.609-3.081l-15.062-36.415c-1.606-3.883-5.359-6.392-9.562-6.392h-37.3c-4.202,0-7.955,2.509-9.562,6.393
	l-15.062,36.413c-0.774,1.872-2.584,3.082-4.609,3.082h-69.902c-2.025,0-3.835-1.21-4.609-3.081l-15.062-36.415
	c-1.606-3.883-5.359-6.392-9.562-6.392h-37.3c-4.202,0-7.955,2.509-9.562,6.393l-15.062,36.414
	c-0.774,1.871-2.583,3.081-4.609,3.081H55.383c-2.026,0-3.836-1.21-4.61-3.081l-15.06-36.41c-1.604-3.886-5.357-6.396-9.563-6.396
	H15V428.24l0,0l0,0l0,0l0,0h482l0,0l0,0V438.67z"/>
<g>
</g>
<g>
</g>
<g>
</g>
<g>
</g>
<g>
</g>
<g>
</g>
<g>
</g>
<g>
</g>
<g>
</g>
<g>
</g>
<g>
</g>
<g>
</g>
<g>
</g>
<g>
</g>
<g>
</g>
</svg>
