<?xml version="1.0" encoding="iso-8859-1"?>
<!-- Generator: Adobe Illustrator 19.0.0, SVG Export Plug-In . SVG Version: 6.00 Build 0)  -->
<svg version="1.1" id="Layer_1" xmlns="http://www.w3.org/2000/svg" xmlns:xlink="http://www.w3.org/1999/xlink" x="0px" y="0px"
	 viewBox="0 0 512 512" style="enable-background:new 0 0 512 512;" xml:space="preserve">
<circle style="fill:#0074A3;" cx="256" cy="256" r="256"/>
<path style="fill:#005C83;" d="M506.096,310.824L246.999,51.728L131.456,66.525l95.497,95.497L115.664,435l66.033,66.033
	C205.215,508.155,230.157,512,256,512C378.564,512,480.993,425.861,506.096,310.824z"/>
<path style="fill:#B9EAFF;" d="M238.729,85.581V55.859h-98.82v29.722c0,10.883-5.49,21.031-14.598,26.987l0,0
	c-9.109,5.956-14.598,16.104-14.598,26.987v279.767c0,15.091,12.234,27.325,27.325,27.325h102.563
	c15.091,0,27.325-12.234,27.325-27.325V139.555c0-10.883-5.49-21.031-14.598-26.987l0,0
	C244.219,106.612,238.729,96.464,238.729,85.581z"/>
<path style="fill:#35CCFF;" d="M253.328,112.568L253.328,112.568c-9.109-5.956-14.598-16.104-14.598-26.987V55.859h-51.063v390.789
	h52.934c15.091,0,27.325-12.234,27.325-27.325V139.555C267.926,128.672,262.437,118.524,253.328,112.568z"/>
<path style="fill:#FFFFFF;" d="M163.491,197.351c-15.378-9.227-35.494-8.447-52.779-0.912v222.883
	c0,15.091,12.234,27.325,27.325,27.325h102.564c15.091,0,27.325-12.234,27.325-27.325V204.54
	C237.267,221.246,195.136,217.337,163.491,197.351z"/>
<path style="fill:#E0E0E0;" d="M187.667,208.848v237.8h52.934c15.091,0,27.325-12.234,27.325-27.325V204.54
	C244.59,217.255,214.612,218.017,187.667,208.848z"/>
<path style="fill:#FFFFFF;" d="M238.934,70.253h-99.229c-6.089,0-11.025-4.936-11.025-11.025l0,0
	c0-6.089,4.936-11.025,11.025-11.025h99.229c6.089,0,11.025,4.936,11.025,11.025l0,0C249.959,65.317,245.023,70.253,238.934,70.253z
	"/>
<path style="fill:#E0E0E0;" d="M238.934,48.202h-51.267v22.051h51.267c6.089,0,11.025-4.936,11.025-11.025l0,0
	C249.959,53.138,245.023,48.202,238.934,48.202z"/>
<path style="fill:#FFECB3;" d="M227.641,413.144c-16.505-39.239-16.085-104.448,13.105-116.726
	c29.19-12.278,74.298,28.753,92.6,72.263c12.278,29.19-1.431,62.806-30.621,75.084C273.536,456.043,239.92,442.334,227.641,413.144z
	"/>
<path style="fill:#FFD863;" d="M333.347,368.681c-18.156-43.164-62.692-83.878-91.898-72.536l62.066,147.265
	C332.155,430.858,345.513,397.603,333.347,368.681z"/>
<path style="fill:#FFFFFF;" d="M307.331,348.794c39.239-16.505,104.448-16.084,116.726,13.105
	c12.278,29.19-28.753,74.298-72.263,92.6c-29.19,12.278-62.806-1.431-75.084-30.621
	C264.432,394.689,278.141,361.072,307.331,348.794z"/>
<path style="fill:#E0E0E0;" d="M423.645,360.995l-147.051,62.588c0.041,0.098,0.074,0.197,0.115,0.295
	c12.278,29.19,45.895,42.899,75.084,30.621c43.51-18.302,84.541-63.41,72.263-92.6C423.929,361.594,423.786,361.295,423.645,360.995
	z"/>
<g>
</g>
<g>
</g>
<g>
</g>
<g>
</g>
<g>
</g>
<g>
</g>
<g>
</g>
<g>
</g>
<g>
</g>
<g>
</g>
<g>
</g>
<g>
</g>
<g>
</g>
<g>
</g>
<g>
</g>
</svg>
