<!--?xml version="1.0" encoding="utf-8"?-->
<!-- Generator: Adobe Illustrator 18.0.0, SVG Export Plug-In . SVG Version: 6.00 Build 0)  -->

<svg version="1.1" id="dexlogo" xmlns="http://www.w3.org/2000/svg" xmlns:xlink="http://www.w3.org/1999/xlink" x="0px" y="0px" viewBox="0 200 960 80" enable-background="new 0 200 960 80" xml:space="preserve" class="">
<path fill="none" stroke="#ffffff" stroke-width="0.5" d="M359.2,206.5v18.2c0,1.2,0,1.2,1.3,1.2h78.4c2,0,1.8-0.2,1.8,1.9
	c0,1.7-0.1,3.4,0,5c0.1,1-0.4,1.9-1.1,2.5c-2,1.9-3.8,3.8-5.7,5.7c-2.8,2.8-5.6,5.7-8.3,8.5c-2.4,2.4-4.8,4.9-7.2,7.3
	c-2.4,2.5-4.9,5-7.3,7.5c-0.1,0.1-0.2,0.3-0.5,0.6h28.8c1.2,0,1.2,0,1.2,1.2v7.9c0,1,0,1.1-1,1.1h-63.5c-3.7,0-7.1-1.1-9.8-3.9
	c-1.8-1.8-2.7-4-3.1-6.4c-0.7-3.9-0.7-7.8,0.7-11.6c1.5-4,4.5-6.3,8.6-7.2c1.5-0.4,3.1-0.5,4.7-0.5c5.6-0.1,11.2,0,16.7,0
	c1.1,0,1.1,0,1.1,1.1v8.1c0,0.7-0.3,0.9-0.9,0.9h-14.4c-1,0-2.1,0.1-3.1,0.2c-1.8,0.2-3.1,1.5-3.3,3.5c-0.1,0.9,0,2,0.2,2.9
	c0.4,1.6,1.5,2.3,3.1,2.6c0.7,0.1,1.6,0.2,2.3,0.2h13.5c0.8,0,1.6-0.1,2.4-0.2c2-0.3,3.2-1.8,3.3-4v-7.9v-12.1
	c0-0.7-0.1-1.2-0.2-1.9c-0.4-1.6-1.8-2.6-3.4-2.7c-2.8-0.1-5.6-0.2-8.4-0.2h-25.8c-1.2,0-1.2,0-1.2,1.2v36.5c0,1.3,0,1.3-1.3,1.3
	h-7.4c-1,0-1.1,0-1.1-1.1v-36.4v-0.8c0-0.5-0.2-0.7-0.7-0.7h-11.8c-0.3,0-0.7,0.2-0.8,0.4l-8.3,9.8c-1,1.2-2.1,2.5-3.2,3.7
	c-0.4,0.5-0.4,0.7,0,1.1c4.8,5.6,9.4,11.2,14.1,16.8c1.9,2.1,3.6,4.3,5.5,6.5c0.2,0.2,0.3,0.4,0.6,0.7c-0.4,0-0.7,0.1-0.9,0.1h-11.3
	c-0.7,0-1.3-0.2-1.8-0.8c-2.5-3.1-5-6.2-7.5-9.2c-1.9-2.3-3.7-4.6-5.6-6.8l-0.4-0.4c-0.7,0.7-1.2,1.4-1.8,2.1
	c-3.9,4.8-7.8,9.7-11.8,14.5c-0.3,0.4-0.8,0.6-1.2,0.6c-10.6,0-21.2,0.1-31.8,0c-4.1-0.1-7.8-1.4-10.3-5c-0.7-1.1-1.3-2.3-2-3.5
	c-0.3,0.7-0.6,1.5-0.9,2.2c-1.8,3.5-4.9,5.3-8.6,6c-1.3,0.3-2.7,0.4-4.1,0.4h-24.4c-1.1,0-1.1,0-1.1-1.1v-8c0-0.9,0.1-1,1-1h23
	c0.9,0,2-0.1,2.9-0.3c1.8-0.4,2.7-1.6,2.8-3.4v-0.7V221c0-1.2-0.3-2.4-1.3-3.2c-0.6-0.5-1.2-0.7-2-0.9c-0.7-0.1-1.6-0.1-2.3-0.1
	h-25.9c-1.1,0-1.1,0-1.1,1.1v56.6c0,0.5-0.2,0.7-0.7,0.7h-8.9c-0.5,0-0.7-0.2-0.7-0.7v-0.4v-67.6h41.2c0.7,0.2,1.5,0.3,2.3,0.5
	c3.4,0.8,6,2.4,7.8,5.5c1.3,2.3,1.9,4.8,2,7.4c0.1,3.9,0,7.9,0,11.8v0.9c0.5-0.7,0.7-1.2,1.1-1.8c2.5-3.5,6.2-4.9,10.3-4.9
	c10.7-0.2,21.3-0.1,32,0c0.4,0,0.9,0.3,1.2,0.6c3.3,3.9,6.4,7.9,9.6,11.8c1.3,1.7,2.7,3.3,4,4.9l0.6-0.6c1.6-2,3.3-4,4.8-6
	c2.7-3.4,5.4-6.6,8-10c0.5-0.7,1-0.9,1.9-0.9h15.5c1.2,0,1.2,0,1.2-1.1v-18.3C352.7,206.5,355.9,206.5,359.2,206.5L359.2,206.5z
	 M303.3,241.9c-0.1,0.5-0.2,0.7-0.2,1v0.7c-0.3,2.6-0.9,5-2.4,7.2c-2.5,3.5-6.2,4.8-10.3,4.9c-6.1,0.2-12.2,0-18.3,0.1
	c-0.7,0-0.9-0.3-0.9-0.9v-8c0-1.2,0-1.2,1.1-1.2H287c0.8,0,1.8-0.1,2.6-0.2c1.8-0.2,3-1.3,3.2-3c0.2-1,0.1-2.1,0-3
	c-0.2-1.6-1.3-2.5-2.8-2.9c-0.7-0.2-1.3-0.3-2.1-0.3c-5.2,0-10.5,0.1-15.7,0.1c-2.3,0-4,1.7-4,4.3v20.1c0,2.2,1.3,3.8,3.2,4.1
	c0.7,0.1,1.6,0.2,2.3,0.2h23.9c0.7,0,1.3-0.3,1.8-0.8c1.2-1.5,2.5-3,3.7-4.5c2.4-2.9,4.8-5.8,7.3-8.6c0.3-0.4,0.3-0.6,0-0.9
	c-1.4-1.6-2.7-3.3-4.1-4.8C305.2,244.2,304.3,243.1,303.3,241.9L303.3,241.9z M408.3,236.2c0.1,5.7,0.1,11.3,0.2,17
	c5.6-5.8,11.1-11.3,16.6-17H408.3L408.3,236.2z" class="lTHE"></path>
	<path fill="none" stroke="#ffffff" stroke-width="0.5" d="M480,266.4h-6.2c-0.7,0-0.9-0.3-1.1-0.9c-0.6-2.3-1.1-4.6-1.6-6.8
	c-0.2-0.7-0.4-0.9-1.1-0.9h-7.6c-0.7,0-0.9,0.3-1.1,0.9c-0.6,2.3-1.1,4.6-1.6,6.8c-0.2,0.7-0.4,0.9-1.1,0.9h-5.5
	c-0.2,0-0.5,0-0.7-0.1c0.1-0.4,0.1-0.7,0.2-0.9l6.6-24.4c1.3-4.7,2.6-9.4,3.8-14.1c0.2-0.7,0.6-1,1.3-1c1.4,0.1,2.8,0,4.1,0
	c0.7,0,0.9,0.2,1.1,0.8l10.5,38.7C479.9,265.8,479.9,266.1,480,266.4L480,266.4z M469.4,252.2c-1.1-4.8-2.2-9.3-3.3-14
	c-0.7,2.2-1.2,4.4-1.8,6.6c-0.6,2.1-1,4.4-1.6,6.5c-0.1,0.4-0.2,0.7,0.4,0.8C465.2,252.2,467.2,252.2,469.4,252.2L469.4,252.2z" class="lA"></path>
<path fill="none" stroke="#ffffff" stroke-width="0.5" d="M160.5,229.9h41.8c0.7,0,1,0.3,1,1v19.9c0,0.7-0.2,1-1,1H173
	c-0.7,0-0.9-0.3-1.3-0.7c-3.6-6.8-7.3-13.5-11-20.2c-0.1-0.1-0.2-0.3-0.3-0.4C160.5,230.3,160.5,230.1,160.5,229.9z M181.2,240.9v6
	c0,1.9-0.2,1.7,1.8,1.7c0.7,0,0.9-0.2,0.9-0.9v-5.1c0-0.7,0.3-1,1-0.9h1.6c0.7,0,1,0.2,0.9,0.9v4.4c0,2-0.3,1.7,1.7,1.7c1,0,1,0,1-1
	V235c0-2.1,0.4-1.9-2-1.9c-0.7,0-0.8,0.2-0.8,0.8v5c0,0.6-0.2,0.8-0.8,0.8h-1.9c-0.7,0-0.8-0.2-0.8-0.8v-4.1c0-2,0.3-1.7-1.8-1.8
	c-0.7,0-0.9,0.3-0.9,0.9C181.2,236.3,181.2,238.5,181.2,240.9z M192.8,240.8v7c0,0.7,0.2,0.8,0.8,0.8h6.5c0.8,0,0.8-0.5,0.8-1
	c0-0.6,0.1-1.1-0.8-1.1c-1.3,0.1-2.6,0-4,0c-0.6,0-0.8-0.2-0.7-0.7v-3.2c0-0.7,0.3-0.8,0.8-0.8h3.2c0.7,0,0.8-0.5,0.8-1
	c0-0.6,0-1-0.8-1h-3.2c-0.6,0-0.8-0.2-0.8-0.8v-3.1c0-0.7,0.3-0.9,0.9-0.8h3.9c0.8,0,0.8-0.5,0.8-1c0-0.7-0.1-0.9-0.8-0.9h-6.5
	c-0.7,0-0.9,0.3-0.9,0.9V240.8L192.8,240.8z M173.9,241.9v5.1c0,1.9-0.2,1.6,1.6,1.6c1.1,0,1.1,0,1.1-1.1v-11.2c0-1.3,0-1.3,1.3-1.3
	h1.2c0.7,0,0.7-0.6,0.7-1s0.1-0.9-0.7-0.9h-7.7c-0.2,0-0.6,0.1-0.6,0.2c-0.1,0.5-0.1,1,0,1.5c0,0.2,0.6,0.3,0.8,0.3
	c0.4,0.1,0.7,0,1.1,0c1.1,0,1.1,0,1.1,1.1C173.9,238.1,173.9,239.9,173.9,241.9L173.9,241.9z M500.3,249.3c3.6,2,4.5,5.2,4.6,8.7
	c0.1,2.7,0.2,5.4-0.4,8.1c-1.1,5.2-4.8,8.6-10.1,8.8c-2.1,0.1-4.4,0.2-6.5,0.2h-43.7c-1.3,0-1.3,0-1.3-1.3v-46.6
	c0-1.3,0-1.3,1.3-1.3h4.8c1.1,0,1.1,0,1.1,1.1v39.7c0,1.1,0,1.1,1,1.1h29.8c1.1,0,1.1,0,1.1-1.1v-39.6c0-1.3,0-1.3,1.3-1.3
	c3.3,0,6.6-0.1,9.9,0c3.5,0.1,6.5,1.1,8.8,3.7c1.4,1.5,2.1,3.4,2.5,5.3c0.6,2.7,0.5,5.4,0.1,8.1c-0.3,2.4-1.6,4.3-3.6,5.7
	C500.8,249,500.6,249.1,500.3,249.3L500.3,249.3z M489.1,260.2v6.9c0,0.7,0.3,0.9,0.9,0.9c0.9-0.1,1.9,0,2.8,0
	c2.8-0.1,4.5-1.5,4.9-4.3c0.4-2.5,0.5-4.9,0-7.4c-0.4-2.1-1.9-3.5-4.1-3.7c-1.2-0.1-2.4-0.1-3.5-0.2c-0.7-0.1-1,0.2-1,1
	C489.2,255.7,489.1,258,489.1,260.2L489.1,260.2z M489.1,239.5v6c0,0.5,0.1,0.7,0.7,0.7h2.9c3.3-0.2,4.7-1.5,5.2-4.6
	c0.3-1.6,0.3-3.2-0.1-4.8c-0.6-2.3-2-3.6-4.3-3.8c-1.1-0.1-2.2-0.1-3.5-0.2c-0.7-0.1-0.9,0.2-0.9,0.9
	C489.2,235.5,489.1,237.5,489.1,239.5L489.1,239.5z" class="lLB"></path>
<path fill="none" stroke="#ffffff" stroke-width="0.5" d="M557,252.3c-1.3-1-2.7-1.7-4.3-2.3s-3.3-1-5-1.5l-5.1-1.2
	c-1.7-0.4-3.2-0.8-4.6-1.4c-1.4-0.6-2.6-1.3-3.5-2.2s-1.5-2.1-1.8-3.6c-0.2-1.2-0.2-2.4,0.2-3.6c0.3-1.2,1-2.3,1.9-3.3
	s2.1-1.8,3.7-2.4c1.5-0.6,3.4-1,5.7-1c1.5,0,2.9,0.2,4.3,0.6c1.4,0.4,2.6,1,3.7,1.8s1.9,1.9,2.6,3.2c0.6,1.3,0.9,2.8,0.9,4.6h4.2
	c0-1.9-0.3-3.7-1-5.4s-1.6-3.2-2.9-4.4c-1.3-1.3-2.9-2.3-4.9-3s-4.3-1.1-6.9-1.1c-2.6,0-4.9,0.3-6.9,1s-3.7,1.6-5,2.8s-2.3,2.5-3,4
	s-1,3.1-1,4.7c0,2.3,0.4,4.2,1.2,5.7s1.9,2.7,3.2,3.7s2.8,1.7,4.6,2.3c1.7,0.6,3.5,1,5.3,1.5c1.8,0.4,3.6,0.8,5.3,1.3
	c1.7,0.4,3.2,1,4.6,1.7c1.3,0.7,2.4,1.6,3.2,2.8c0.8,1.1,1.2,2.6,1.2,4.4c0,1.3-0.2,2.6-0.7,3.7c-0.5,1.2-1.1,2.2-2.1,3.1
	s-2.2,1.6-3.7,2.1s-3.3,0.8-5.4,0.8c-1.8,0-3.4-0.2-5-0.6s-2.9-1.1-4.1-2c-1.2-0.9-2.1-2.1-2.9-3.5c-0.8-1.5-1.2-3.2-1.4-5.3H527
	c0,2.6,0.4,4.8,1.3,6.7c0.8,1.9,2,3.5,3.6,4.7c1.5,1.3,3.3,2.2,5.4,2.9c2.1,0.6,4.3,0.9,6.8,0.9c5.4,0,9.6-1.2,12.6-3.6
	s4.5-5.7,4.5-10.1c0-2.3-0.4-4.1-1.1-5.6C559.2,254.4,558.2,253.2,557,252.3L557,252.3z M565,230.9h14.8V274h4.5v-43.1h14.8v-3.8
	H565V230.9z M637.3,255c0,2.8-0.2,5.2-0.7,7.2s-1.2,3.7-2.3,5.1s-2.5,2.4-4.3,3.1s-3.9,1-6.4,1c-4.8,0-8.3-1.3-10.5-3.8
	c-2.2-2.6-3.2-6.8-3.2-12.6v-27.9h-4.4v29.2c0,6,1.5,10.6,4.5,13.9s7.5,4.9,13.6,4.9s10.6-1.6,13.6-4.9c3-3.2,4.5-7.9,4.5-14V227
	h-4.4L637.3,255L637.3,255z M689,239.9c-0.6-1.8-1.4-3.5-2.4-5.1s-2.3-3-3.8-4.1c-1.1-0.8-2.2-1.4-3.4-1.9c-1.1-0.5-2.3-0.8-3.5-1.1
	c-1.2-0.2-2.4-0.4-3.7-0.5s-2.5-0.1-3.8-0.1h-16V274h16c1.6,0,3.1-0.1,4.6-0.2s3-0.4,4.4-0.8s2.8-1,4-1.7c1.3-0.8,2.5-1.7,3.6-2.9
	s2-2.4,2.7-3.9c0.7-1.4,1.3-2.9,1.7-4.4s0.7-3.1,0.9-4.7c0.2-1.6,0.3-3.2,0.3-4.7c0-1.6-0.1-3.2-0.4-5.1
	C690,243.5,689.6,241.7,689,239.9L689,239.9z M685.8,255.5c-0.2,1.7-0.7,3.4-1.2,5c-0.6,1.6-1.4,3-2.4,4.4s-2.3,2.4-3.8,3.2
	c-1.8,1-3.6,1.6-5.4,1.8c-1.8,0.2-3.6,0.4-5.6,0.4h-10.6V231h10.6c1.9,0,3.9,0.1,5.8,0.3c1.9,0.2,3.6,0.7,5,1.4c1.6,0.9,3,2,4,3.3
	s1.9,2.8,2.5,4.4c0.6,1.6,1,3.3,1.2,5c0.2,1.8,0.3,3.5,0.3,5.2C686.2,252.1,686,253.8,685.8,255.5L685.8,255.5z M700.9,227.1h4.4
	v46.8h-4.4V227.1z M753.6,233.1c-1.8-2.2-4.1-4-6.9-5.3c-2.8-1.3-6-1.9-9.6-1.9c-3.5,0-6.6,0.7-9.3,2s-4.9,3.1-6.7,5.3
	s-3.2,4.9-4.1,7.8c-0.9,3-1.4,6.2-1.4,9.6c0,3.4,0.5,6.6,1.4,9.5c0.9,3,2.3,5.6,4.1,7.8c1.8,2.2,4.1,4,6.8,5.3c2.8,1.3,5.9,2,9.5,2
	s6.8-0.7,9.5-2c2.8-1.3,5-3.1,6.8-5.3c1.8-2.2,3.2-4.8,4.1-7.8c0.9-3,1.4-6.1,1.4-9.5s-0.5-6.6-1.4-9.7
	C756.9,238,755.5,235.3,753.6,233.1L753.6,233.1z M753.8,258.5c-0.7,2.5-1.7,4.7-3.1,6.7c-1.4,1.9-3.2,3.4-5.4,4.6
	c-2.2,1.1-4.8,1.7-7.8,1.7c-3.1,0-5.7-0.5-7.9-1.7c-2.2-1.1-4-2.6-5.4-4.5s-2.4-4.1-3.1-6.6c-0.7-2.5-1-5.2-1-7.9s0.3-5.4,1-7.9
	s1.7-4.7,3.1-6.7c1.4-1.9,3.2-3.5,5.4-4.7s4.8-1.8,7.8-1.8c2.7,0,5.1,0.5,7.3,1.4c2.2,1,4,2.3,5.5,4.2c1.5,1.8,2.7,4,3.5,6.6
	s1.2,5.5,1.2,8.7C754.8,253.4,754.5,256,753.8,258.5L753.8,258.5z M798.4,255.9c-0.8-1.5-1.8-2.7-3-3.7c-1.3-1-2.7-1.7-4.3-2.3
	s-3.3-1-5-1.5l-5.1-1.2c-1.7-0.4-3.2-0.8-4.6-1.4c-1.4-0.6-2.6-1.3-3.5-2.2s-1.5-2.1-1.8-3.6c-0.2-1.2-0.2-2.4,0.2-3.6
	c0.3-1.2,1-2.3,1.9-3.3s2.1-1.8,3.7-2.4c1.5-0.6,3.4-1,5.7-1c1.5,0,2.9,0.2,4.3,0.6c1.4,0.4,2.6,1,3.7,1.8s1.9,1.9,2.6,3.2
	c0.6,1.3,0.9,2.8,0.9,4.6h4.2c0-1.9-0.3-3.7-1-5.4s-1.6-3.2-2.9-4.4c-1.3-1.3-2.9-2.3-4.9-3s-4.3-1.1-6.9-1.1c-2.6,0-4.9,0.3-6.9,1
	s-3.7,1.6-5,2.8s-2.3,2.5-3,4s-1,3.1-1,4.7c0,2.3,0.4,4.2,1.2,5.7s1.9,2.7,3.2,3.7s2.8,1.7,4.6,2.3c1.7,0.6,3.5,1,5.3,1.5
	c1.8,0.4,3.6,0.8,5.3,1.3c1.7,0.4,3.2,1,4.6,1.7c1.3,0.7,2.4,1.6,3.2,2.8c0.8,1.1,1.2,2.6,1.2,4.4c0,1.3-0.2,2.6-0.7,3.7
	c-0.5,1.2-1.1,2.2-2.1,3.1s-2.2,1.6-3.7,2.1s-3.3,0.8-5.4,0.8c-1.8,0-3.4-0.2-5-0.6s-2.9-1.1-4.1-2c-1.2-0.9-2.1-2.1-2.9-3.5
	c-0.8-1.5-1.2-3.2-1.4-5.3h-4.3c0,2.6,0.4,4.8,1.3,6.7c0.8,1.9,2,3.5,3.6,4.7c1.5,1.3,3.3,2.2,5.4,2.9c2.1,0.6,4.3,0.9,6.8,0.9
	c5.4,0,9.6-1.2,12.6-3.6s4.5-5.7,4.5-10.1C799.6,259.3,799.2,257.4,798.4,255.9L798.4,255.9z" class="lSTUDIOS"></path>
</svg>
